<svg xmlns="http://www.w3.org/2000/svg" viewBox="0 0 160 48" aria-hidden="true">
  <rect x="0" y="6" width="36" height="36" rx="4" fill="#00915A"/>
  <path fill="#fff" d="M18 14c2.5 1.8 4 4.2 4 7s-1.5 5.2-4 7c-1.5-1.5-2.3-3.3-2.3-5.3h2.2c0 .9.5 1.8 1.4 2.5 1.4-1.2 2.2-2.7 2.2-4.2s-.8-3-2.2-4.2c-.8.7-1.3 1.5-1.4 2.5h-2.2c0-2 0.8-3.8 2.3-5.3z"/>
  <circle cx="27" cy="16" r="2.2" fill="#fff"/>
  <circle cx="30" cy="24" r="2.2" fill="#fff"/>
  <circle cx="27" cy="32" r="2.2" fill="#fff"/>
  <text x="46" y="32" fill="#00915A" font-family="Arial, Helvetica, sans-serif" font-size="22" font-weight="700" letter-spacing="1">BMCI</text>
</svg>
