<svg xmlns="http://www.w3.org/2000/svg" width="194.71858mm" height="56.444443mm" viewBox="0 0 689.94773 199.99999" id="svg45702" version="1.1"><g id="layer1" transform="translate(-317.22505,-388.43684)"><g id="g16114" transform="matrix(17.072421,0,0,-17.072421,-10460.847,1135.3894)"><path d="m 648.2104,37.3848 2.687,0.012 0.699,1.972 c -0.905,-0.052 -1.832,-0.14 -2.744,-0.183 l -0.642,-1.801 z m 19.567,1.195 c -0.567,0 -1.018,0.135 -1.351,0.409 -0.336,0.267 -0.502,0.634 -0.502,1.095 0,0.084 0.012,0.356 0.026,0.446 -0.897,-0.094 -1.659,-0.124 -2.7,-0.237 -0.005,-0.06 -0.057,-0.412 -0.057,-0.472 0,-0.803 0.409,-1.428 1.219,-1.866 0.692,-0.375 1.551,-0.558 2.579,-0.558 l 4.306,-0.012 0.419,1.195 -3.939,0 z m -13.208,-1.195 2.708,0.012 0.879,2.468 c -0.896,-0.07 -1.822,-0.154 -2.773,-0.218 l -0.814,-2.262 z m -13.502,0 2.698,0.012 0.546,1.531 c -0.925,-0.031 -1.841,-0.1 -2.729,-0.119 l -0.515,-1.424 z" style="fill:#26357c;fill-opacity:1;fill-rule:nonzero;stroke:none" id="path3632-2"/><path d="m 650.8608,43.1816 c -0.69,0.375 -1.55,0.562 -2.577,0.562 l -5.007,-0.021 -1.428,-4.043 2.755,0.158 0.96,2.717 1.932,0 c 0.568,0 1.018,-0.135 1.348,-0.406 0.331,-0.268 0.496,-0.637 0.496,-1.096 0,-0.15 -0.099,-0.545 -0.194,-0.883 0.943,0.059 2.119,0.201 2.752,0.241 0.096,0.351 0.184,0.73 0.184,0.904 0,0.806 -0.409,1.426 -1.221,1.867" style="fill:#fab830;fill-opacity:1;fill-rule:nonzero;stroke:none" id="path3636-6"/><path d="m 666.4478,42.041 0.617,1.711 -2.686,-0.008 -0.74,-2.057 2.809,0.354 z" style="fill:#fab830;fill-opacity:1;fill-rule:nonzero;stroke:none" id="path3640-1"/><path d="m 653.2407,43.7324 -0.421,-1.187 3.538,0 -0.627,-1.76 2.816,0.304 0.52,1.456 3.537,0 0.422,1.187 -9.785,0 z" style="fill:#fab830;fill-opacity:1;fill-rule:nonzero;stroke:none" id="path3644-0"/><path d="m 636.2178,42.5215 c 0.286,0.066 0.583,0.1 0.889,0.1 l 4.497,0 0.4,1.101 -5.307,0 c -0.601,-0.014 -1.232,-0.109 -1.898,-0.291 -1.293,-0.34 -2.076,-0.887 -2.349,-1.644 -0.046,-0.147 -0.07,-0.28 -0.07,-0.409 0,-0.492 0.376,-0.863 1.129,-1.107 0.534,-0.172 1.13,-0.256 1.79,-0.256 l 1.248,0 c 0.32,0 0.606,-0.039 0.859,-0.111 0.309,-0.088 0.49,-0.223 0.544,-0.401 0.739,0 1.151,0.041 2.834,0.122 0,0.498 -0.376,0.98 -1.128,1.218 -0.534,0.172 -1.134,0.26 -1.8,0.26 l -1.209,0 c -0.326,0 -0.617,0.037 -0.869,0.111 -0.374,0.108 -0.56,0.278 -0.56,0.512 0,0.055 0.014,0.111 0.04,0.17 0.1,0.295 0.42,0.504 0.96,0.625" style="fill:#fab830;fill-opacity:1;fill-rule:nonzero;stroke:none" id="path3648-1"/><path d="m 637.1431,38.5801 c -0.294,-0.068 -0.594,-0.098 -0.901,-0.098 l -4.526,0 -0.39,-1.111 5.307,0.01 c 0.593,0.015 1.222,0.109 1.888,0.289 0.935,0.246 1.645,0.646 2.049,1.103 l -2.973,-0.068 c -0.138,-0.066 -0.261,-0.08 -0.454,-0.125" style="fill:#26357c;fill-opacity:1;fill-rule:nonzero;stroke:none" id="path3652-1"/><path d="m 631.3535,32.3887 0.234,0.016 c 0.005,-0.037 0.015,-0.067 0.031,-0.088 0.025,-0.033 0.062,-0.047 0.108,-0.047 0.035,0 0.063,0.008 0.082,0.025 0.019,0.016 0.028,0.037 0.028,0.057 0,0.019 -0.008,0.039 -0.027,0.055 -0.019,0.017 -0.06,0.031 -0.125,0.046 -0.109,0.026 -0.186,0.059 -0.232,0.096 -0.046,0.041 -0.069,0.09 -0.069,0.156 0,0.039 0.012,0.077 0.035,0.114 0.024,0.037 0.06,0.064 0.108,0.086 0.047,0.021 0.112,0.033 0.194,0.033 0.102,0 0.18,-0.024 0.234,-0.059 0.053,-0.041 0.084,-0.097 0.095,-0.179 l -0.233,-0.014 c -0.005,0.037 -0.018,0.06 -0.038,0.078 -0.019,0.016 -0.047,0.023 -0.082,0.023 -0.028,0 -0.049,-0.005 -0.064,-0.017 -0.015,-0.012 -0.022,-0.027 -0.022,-0.045 0,-0.014 0.006,-0.024 0.018,-0.033 0.011,-0.012 0.039,-0.024 0.082,-0.032 0.108,-0.021 0.184,-0.046 0.231,-0.068 0.047,-0.021 0.08,-0.053 0.101,-0.09 0.022,-0.033 0.032,-0.074 0.032,-0.117 0,-0.051 -0.014,-0.098 -0.042,-0.141 -0.028,-0.044 -0.067,-0.076 -0.118,-0.095 -0.051,-0.022 -0.115,-0.035 -0.192,-0.035 -0.135,0 -0.228,0.027 -0.281,0.078 -0.051,0.052 -0.081,0.119 -0.088,0.197" style="fill:#26357c;fill-opacity:1;fill-rule:nonzero;stroke:none" id="path3656-4"/><path d="m 632.4468,32.5234 c 0,-0.082 0.015,-0.139 0.045,-0.174 0.029,-0.035 0.07,-0.053 0.121,-0.053 0.052,0 0.095,0.018 0.123,0.053 0.029,0.035 0.043,0.094 0.043,0.186 0,0.072 -0.015,0.129 -0.045,0.164 -0.03,0.031 -0.071,0.049 -0.122,0.049 -0.051,0 -0.091,-0.018 -0.12,-0.051 -0.03,-0.037 -0.045,-0.094 -0.045,-0.174 m -0.246,0 c 0,0.129 0.036,0.232 0.109,0.305 0.072,0.07 0.173,0.109 0.302,0.109 0.131,0 0.233,-0.037 0.306,-0.107 0.072,-0.071 0.107,-0.17 0.107,-0.301 0,-0.092 -0.016,-0.168 -0.047,-0.227 -0.032,-0.06 -0.077,-0.107 -0.136,-0.14 -0.059,-0.032 -0.132,-0.049 -0.22,-0.049 -0.09,0 -0.164,0.014 -0.223,0.043 -0.059,0.029 -0.106,0.076 -0.143,0.135 -0.037,0.062 -0.055,0.14 -0.055,0.232" style="fill:#26357c;fill-opacity:1;fill-rule:nonzero;stroke:none" id="path3660-1"/><path d="m 633.7197,32.4512 0.215,-0.064 c -0.014,-0.061 -0.037,-0.112 -0.069,-0.151 -0.03,-0.041 -0.069,-0.072 -0.115,-0.092 -0.046,-0.019 -0.105,-0.031 -0.176,-0.031 -0.086,0 -0.157,0.014 -0.212,0.039 -0.054,0.026 -0.102,0.07 -0.142,0.131 -0.04,0.064 -0.059,0.145 -0.059,0.244 0,0.133 0.035,0.233 0.105,0.303 0.069,0.07 0.169,0.107 0.297,0.107 0.1,0 0.179,-0.023 0.236,-0.062 0.057,-0.041 0.099,-0.102 0.127,-0.188 l -0.215,-0.049 c -0.01,0.028 -0.017,0.043 -0.025,0.055 -0.014,0.018 -0.03,0.033 -0.051,0.043 -0.02,0.01 -0.042,0.014 -0.065,0.014 -0.057,0 -0.099,-0.024 -0.129,-0.067 -0.023,-0.033 -0.034,-0.084 -0.034,-0.156 0,-0.088 0.014,-0.146 0.039,-0.18 0.027,-0.033 0.065,-0.048 0.113,-0.048 0.048,0 0.083,0.013 0.107,0.039 0.025,0.025 0.042,0.064 0.053,0.113" style="fill:#26357c;fill-opacity:1;fill-rule:nonzero;stroke:none" id="path3664-7"/><path id="path3666-6" style="fill:#26357c;fill-opacity:1;fill-rule:nonzero;stroke:none" d="m 634.097,32.924 0.246,0 0,-0.797 -0.246,0 0,0.797 z"/><path d="m 634.5532,32.9238 0.657,0 0,-0.17 -0.411,0 0,-0.129 0.382,0 0,-0.16 -0.382,0 0,-0.158 0.423,0 0,-0.18 -0.669,0 0,0.797 z" style="fill:#26357c;fill-opacity:1;fill-rule:nonzero;stroke:none" id="path3670-9"/><path d="m 635.3325,32.9238 0.747,0 0,-0.199 -0.251,0 0,-0.598 -0.246,0 0,0.598 -0.25,0 0,0.199 z" style="fill:#26357c;fill-opacity:1;fill-rule:nonzero;stroke:none" id="path3674-9"/><path d="m 636.2236,32.9238 0.657,0 0,-0.17 -0.41,0 0,-0.129 0.381,0 0,-0.16 -0.381,0 0,-0.158 0.422,0 0,-0.18 -0.669,0 0,0.797 z" style="fill:#26357c;fill-opacity:1;fill-rule:nonzero;stroke:none" id="path3678"/><path d="m 637.4644,32.9238 0.23,0 0.299,-0.441 0,0.441 0.231,0 0,-0.797 -0.231,0 -0.298,0.434 0,-0.434 -0.231,0 0,0.797 z" style="fill:#26357c;fill-opacity:1;fill-rule:nonzero;stroke:none" id="path3682-5"/><path d="m 638.8481,32.4316 -0.087,0.283 -0.088,-0.283 0.175,0 z m 0.052,-0.172 -0.28,0 -0.04,-0.133 -0.25,0 0.299,0.797 0.268,0 0.299,-0.797 -0.258,0 -0.038,0.133 z" style="fill:#26357c;fill-opacity:1;fill-rule:nonzero;stroke:none" id="path3686"/><path d="m 639.1753,32.9238 0.747,0 0,-0.199 -0.251,0 0,-0.598 -0.246,0 0,0.598 -0.25,0 0,0.199 z" style="fill:#26357c;fill-opacity:1;fill-rule:nonzero;stroke:none" id="path3690"/><path id="path3692-2" style="fill:#26357c;fill-opacity:1;fill-rule:nonzero;stroke:none" d="m 640.076,32.924 0.247,0 0,-0.797 -0.247,0 0,0.797 z"/><path d="m 640.7466,32.5234 c 0,-0.082 0.014,-0.139 0.044,-0.174 0.031,-0.035 0.071,-0.053 0.123,-0.053 0.052,0 0.093,0.018 0.122,0.053 0.029,0.035 0.044,0.094 0.044,0.186 0,0.072 -0.015,0.129 -0.046,0.164 -0.03,0.031 -0.071,0.049 -0.122,0.049 -0.051,0 -0.09,-0.018 -0.12,-0.051 -0.031,-0.037 -0.045,-0.094 -0.045,-0.174 m -0.246,0 c 0,0.129 0.036,0.232 0.108,0.305 0.073,0.07 0.174,0.109 0.303,0.109 0.132,0 0.233,-0.037 0.306,-0.107 0.071,-0.071 0.108,-0.17 0.108,-0.301 0,-0.092 -0.017,-0.168 -0.048,-0.227 -0.031,-0.06 -0.076,-0.107 -0.135,-0.14 -0.06,-0.032 -0.133,-0.049 -0.221,-0.049 -0.091,0 -0.164,0.014 -0.223,0.043 -0.059,0.029 -0.107,0.076 -0.142,0.135 -0.038,0.062 -0.056,0.14 -0.056,0.232" style="fill:#26357c;fill-opacity:1;fill-rule:nonzero;stroke:none" id="path3696-0"/><path d="m 641.4922,32.9238 0.229,0 0.3,-0.441 0,0.441 0.231,0 0,-0.797 -0.231,0 -0.299,0.434 0,-0.434 -0.23,0 0,0.797 z" style="fill:#26357c;fill-opacity:1;fill-rule:nonzero;stroke:none" id="path3700-0"/><path d="m 642.8755,32.4316 -0.088,0.283 -0.087,-0.283 0.175,0 z m 0.052,-0.172 -0.28,0 -0.039,-0.133 -0.251,0 0.299,0.797 0.269,0 0.298,-0.797 -0.257,0 -0.039,0.133 z" style="fill:#26357c;fill-opacity:1;fill-rule:nonzero;stroke:none" id="path3704-5"/><path d="m 643.335,32.9238 0.246,0 0,-0.602 0.382,0 0,-0.195 -0.628,0 0,0.797 z" style="fill:#26357c;fill-opacity:1;fill-rule:nonzero;stroke:none" id="path3708-8"/><path d="m 644.1094,32.9238 0.658,0 0,-0.17 -0.412,0 0,-0.129 0.382,0 0,-0.16 -0.382,0 0,-0.158 0.423,0 0,-0.18 -0.669,0 0,0.797 z" style="fill:#26357c;fill-opacity:1;fill-rule:nonzero;stroke:none" id="path3712-5"/><path d="m 645.5972,32.7422 0,-0.436 0.061,0 c 0.049,0 0.087,0.008 0.108,0.018 0.022,0.012 0.039,0.031 0.052,0.061 0.011,0.027 0.018,0.074 0.018,0.138 0,0.082 -0.013,0.143 -0.042,0.172 -0.027,0.031 -0.072,0.047 -0.136,0.047 l -0.061,0 z m -0.245,0.182 0.365,0 c 0.071,0 0.128,-0.012 0.173,-0.032 0.045,-0.021 0.082,-0.05 0.111,-0.086 0.028,-0.033 0.048,-0.078 0.063,-0.125 0.012,-0.048 0.018,-0.099 0.018,-0.154 0,-0.086 -0.008,-0.152 -0.028,-0.195 -0.02,-0.049 -0.047,-0.088 -0.081,-0.121 -0.034,-0.03 -0.071,-0.053 -0.11,-0.061 -0.054,-0.015 -0.103,-0.023 -0.146,-0.023 l -0.365,0 0,0.797 z" style="fill:#26357c;fill-opacity:1;fill-rule:nonzero;stroke:none" id="path3716-7"/><path d="m 646.2437,32.9238 0.659,0 0,-0.17 -0.413,0 0,-0.129 0.383,0 0,-0.16 -0.383,0 0,-0.158 0.424,0 0,-0.18 -0.67,0 0,0.797 z" style="fill:#26357c;fill-opacity:1;fill-rule:nonzero;stroke:none" id="path3720-9"/><path d="m 647.0386,32.3887 0.232,0.016 c 0.006,-0.037 0.016,-0.067 0.032,-0.088 0.025,-0.033 0.062,-0.047 0.107,-0.047 0.036,0 0.063,0.008 0.082,0.025 0.02,0.016 0.028,0.037 0.028,0.057 0,0.019 -0.008,0.039 -0.027,0.055 -0.017,0.017 -0.059,0.031 -0.124,0.046 -0.108,0.026 -0.185,0.059 -0.232,0.096 -0.045,0.041 -0.069,0.09 -0.069,0.156 0,0.039 0.012,0.077 0.035,0.114 0.024,0.037 0.059,0.064 0.108,0.086 0.049,0.021 0.112,0.033 0.195,0.033 0.102,0 0.178,-0.024 0.233,-0.059 0.052,-0.041 0.085,-0.097 0.093,-0.179 l -0.23,-0.014 c -0.006,0.037 -0.02,0.06 -0.039,0.078 -0.02,0.016 -0.047,0.023 -0.082,0.023 -0.03,0 -0.051,-0.005 -0.065,-0.017 -0.013,-0.012 -0.021,-0.027 -0.021,-0.045 0,-0.014 0.006,-0.024 0.017,-0.033 0.012,-0.012 0.039,-0.024 0.082,-0.032 0.108,-0.021 0.186,-0.046 0.233,-0.068 0.045,-0.021 0.079,-0.053 0.101,-0.09 0.021,-0.033 0.032,-0.074 0.032,-0.117 0,-0.051 -0.015,-0.098 -0.043,-0.141 -0.029,-0.044 -0.068,-0.076 -0.117,-0.095 -0.052,-0.022 -0.116,-0.035 -0.192,-0.035 -0.137,0 -0.23,0.027 -0.281,0.078 -0.053,0.052 -0.082,0.119 -0.088,0.197" style="fill:#26357c;fill-opacity:1;fill-rule:nonzero;stroke:none" id="path3724-2"/><path d="m 648.2642,32.9238 0.746,0 0,-0.199 -0.25,0 0,-0.598 -0.246,0 0,0.598 -0.25,0 0,0.199 z" style="fill:#26357c;fill-opacity:1;fill-rule:nonzero;stroke:none" id="path3728-3"/><path d="m 649.4048,32.5996 0.104,0 c 0.011,0 0.032,0.004 0.064,0.01 0.018,0.004 0.029,0.011 0.041,0.027 0.01,0.012 0.016,0.029 0.016,0.045 0,0.025 -0.01,0.045 -0.024,0.059 -0.018,0.013 -0.049,0.019 -0.093,0.019 l -0.108,0 0,-0.16 z m -0.246,-0.473 0,0.797 0.409,0 c 0.075,0 0.134,-0.01 0.175,-0.021 0.039,-0.014 0.072,-0.039 0.096,-0.071 0.024,-0.037 0.039,-0.082 0.039,-0.13 0,-0.045 -0.012,-0.082 -0.03,-0.114 -0.019,-0.033 -0.046,-0.058 -0.077,-0.076 -0.022,-0.014 -0.052,-0.025 -0.087,-0.033 0.029,-0.01 0.051,-0.02 0.063,-0.031 0.01,-0.006 0.022,-0.02 0.041,-0.041 0.015,-0.022 0.027,-0.036 0.033,-0.049 l 0.119,-0.231 -0.277,0 -0.131,0.244 c -0.019,0.03 -0.032,0.049 -0.044,0.061 -0.019,0.012 -0.039,0.018 -0.062,0.018 l -0.021,0 0,-0.323 -0.246,0 z" style="fill:#26357c;fill-opacity:1;fill-rule:nonzero;stroke:none" id="path3732-2"/><path d="m 650.4897,32.4316 -0.088,0.283 -0.087,-0.283 0.175,0 z m 0.051,-0.172 -0.279,0 -0.04,-0.133 -0.249,0 0.299,0.797 0.268,0 0.298,-0.797 -0.257,0 -0.04,0.133 z" style="fill:#26357c;fill-opacity:1;fill-rule:nonzero;stroke:none" id="path3736-42"/><path d="m 650.9507,32.9238 0.229,0 0.299,-0.441 0,0.441 0.233,0 0,-0.797 -0.233,0 -0.297,0.434 0,-0.434 -0.231,0 0,0.797 z" style="fill:#26357c;fill-opacity:1;fill-rule:nonzero;stroke:none" id="path3740-4"/><path d="m 651.8647,32.3887 0.233,0.016 c 0.006,-0.037 0.016,-0.067 0.032,-0.088 0.025,-0.033 0.06,-0.047 0.108,-0.047 0.035,0 0.063,0.008 0.081,0.025 0.02,0.016 0.028,0.037 0.028,0.057 0,0.019 -0.008,0.039 -0.026,0.055 -0.019,0.017 -0.06,0.031 -0.127,0.046 -0.108,0.026 -0.183,0.059 -0.229,0.096 -0.048,0.041 -0.07,0.09 -0.07,0.156 0,0.039 0.011,0.077 0.035,0.114 0.024,0.037 0.058,0.064 0.107,0.086 0.048,0.021 0.112,0.033 0.194,0.033 0.104,0 0.181,-0.024 0.235,-0.059 0.052,-0.041 0.085,-0.097 0.095,-0.179 l -0.232,-0.014 c -0.007,0.037 -0.02,0.06 -0.039,0.078 -0.02,0.016 -0.047,0.023 -0.082,0.023 -0.029,0 -0.05,-0.005 -0.064,-0.017 -0.014,-0.012 -0.022,-0.027 -0.022,-0.045 0,-0.014 0.007,-0.024 0.017,-0.033 0.012,-0.012 0.039,-0.024 0.084,-0.032 0.107,-0.021 0.184,-0.046 0.23,-0.068 0.046,-0.021 0.081,-0.053 0.1,-0.09 0.024,-0.033 0.034,-0.074 0.034,-0.117 0,-0.051 -0.014,-0.098 -0.043,-0.141 -0.03,-0.044 -0.069,-0.076 -0.118,-0.095 -0.05,-0.022 -0.115,-0.035 -0.192,-0.035 -0.136,0 -0.227,0.027 -0.281,0.078 -0.052,0.052 -0.081,0.119 -0.088,0.197" style="fill:#26357c;fill-opacity:1;fill-rule:nonzero;stroke:none" id="path3744-2"/><path d="m 652.9888,32.584 0.061,0 c 0.046,0 0.08,0.008 0.098,0.023 0.02,0.018 0.029,0.038 0.029,0.061 0,0.027 -0.007,0.051 -0.024,0.066 -0.018,0.016 -0.048,0.026 -0.094,0.026 l -0.07,0 0,-0.176 z m -0.247,0.34 0.409,0 c 0.088,0 0.154,-0.024 0.198,-0.065 0.045,-0.043 0.069,-0.103 0.069,-0.181 0,-0.08 -0.026,-0.143 -0.074,-0.19 -0.048,-0.045 -0.123,-0.068 -0.221,-0.068 l -0.134,0 0,-0.293 -0.247,0 0,0.797 z" style="fill:#26357c;fill-opacity:1;fill-rule:nonzero;stroke:none" id="path3748-4"/><path d="m 653.7935,32.5234 c 0,-0.082 0.015,-0.139 0.044,-0.174 0.03,-0.035 0.07,-0.053 0.122,-0.053 0.053,0 0.094,0.018 0.123,0.053 0.029,0.035 0.043,0.094 0.043,0.186 0,0.072 -0.015,0.129 -0.045,0.164 -0.03,0.031 -0.071,0.049 -0.123,0.049 -0.05,0 -0.09,-0.018 -0.12,-0.051 -0.029,-0.037 -0.044,-0.094 -0.044,-0.174 m -0.246,0 c 0,0.129 0.035,0.232 0.108,0.305 0.072,0.07 0.174,0.109 0.302,0.109 0.133,0 0.234,-0.037 0.307,-0.107 0.071,-0.071 0.106,-0.17 0.106,-0.301 0,-0.092 -0.016,-0.168 -0.047,-0.227 -0.031,-0.06 -0.075,-0.107 -0.134,-0.14 -0.06,-0.032 -0.133,-0.049 -0.221,-0.049 -0.091,0 -0.164,0.014 -0.224,0.043 -0.058,0.029 -0.105,0.076 -0.142,0.135 -0.036,0.062 -0.055,0.14 -0.055,0.232" style="fill:#26357c;fill-opacity:1;fill-rule:nonzero;stroke:none" id="path3752-6"/><path d="m 654.7866,32.5996 0.104,0 c 0.01,0 0.034,0.004 0.065,0.01 0.016,0.004 0.029,0.011 0.039,0.027 0.012,0.012 0.016,0.029 0.016,0.045 0,0.025 -0.008,0.045 -0.024,0.059 -0.016,0.013 -0.048,0.019 -0.092,0.019 l -0.108,0 0,-0.16 z m -0.247,-0.473 0,0.797 0.41,0 c 0.076,0 0.133,-0.01 0.174,-0.021 0.041,-0.014 0.071,-0.039 0.098,-0.071 0.023,-0.037 0.036,-0.082 0.036,-0.13 0,-0.045 -0.009,-0.082 -0.029,-0.114 -0.018,-0.033 -0.045,-0.058 -0.077,-0.076 -0.022,-0.014 -0.051,-0.025 -0.085,-0.033 0.028,-0.01 0.049,-0.02 0.063,-0.031 0.008,-0.006 0.022,-0.02 0.039,-0.041 0.017,-0.022 0.029,-0.036 0.034,-0.049 l 0.118,-0.231 -0.275,0 -0.133,0.244 c -0.016,0.03 -0.031,0.049 -0.044,0.061 -0.019,0.012 -0.038,0.018 -0.06,0.018 l -0.022,0 0,-0.323 -0.247,0 z" style="fill:#26357c;fill-opacity:1;fill-rule:nonzero;stroke:none" id="path3756-0"/><path d="m 655.3677,32.9238 0.748,0 0,-0.199 -0.252,0 0,-0.598 -0.245,0 0,0.598 -0.251,0 0,0.199 z" style="fill:#26357c;fill-opacity:1;fill-rule:nonzero;stroke:none" id="path3760-4"/><path d="m 656.2153,32.3887 0.235,0.016 c 0.005,-0.037 0.015,-0.067 0.031,-0.088 0.025,-0.033 0.06,-0.047 0.109,-0.047 0.033,0 0.062,0.008 0.08,0.025 0.02,0.016 0.028,0.037 0.028,0.057 0,0.019 -0.008,0.039 -0.026,0.055 -0.019,0.017 -0.06,0.031 -0.127,0.046 -0.106,0.026 -0.184,0.059 -0.23,0.096 -0.045,0.041 -0.069,0.09 -0.069,0.156 0,0.039 0.012,0.077 0.035,0.114 0.024,0.037 0.061,0.064 0.108,0.086 0.047,0.021 0.112,0.033 0.195,0.033 0.102,0 0.178,-0.024 0.233,-0.059 0.053,-0.041 0.084,-0.097 0.094,-0.179 l -0.231,-0.014 c -0.006,0.037 -0.02,0.06 -0.038,0.078 -0.021,0.016 -0.048,0.023 -0.083,0.023 -0.028,0 -0.048,-0.005 -0.065,-0.017 -0.013,-0.012 -0.02,-0.027 -0.02,-0.045 0,-0.014 0.005,-0.024 0.016,-0.033 0.012,-0.012 0.04,-0.024 0.084,-0.032 0.107,-0.021 0.184,-0.046 0.231,-0.068 0.047,-0.021 0.078,-0.053 0.101,-0.09 0.02,-0.033 0.032,-0.074 0.032,-0.117 0,-0.051 -0.014,-0.098 -0.043,-0.141 -0.028,-0.044 -0.068,-0.076 -0.118,-0.095 -0.05,-0.022 -0.115,-0.035 -0.191,-0.035 -0.135,0 -0.228,0.027 -0.282,0.078 -0.052,0.052 -0.081,0.119 -0.089,0.197" style="fill:#26357c;fill-opacity:1;fill-rule:nonzero;stroke:none" id="path3764-0"/><path d="m 657.4985,32.9238 0.658,0 0,-0.17 -0.413,0 0,-0.129 0.384,0 0,-0.16 -0.384,0 0,-0.158 0.425,0 0,-0.18 -0.67,0 0,0.797 z" style="fill:#26357c;fill-opacity:1;fill-rule:nonzero;stroke:none" id="path3768-3"/><path d="m 658.2769,32.9238 0.747,0 0,-0.199 -0.25,0 0,-0.598 -0.246,0 0,0.598 -0.251,0 0,0.199 z" style="fill:#26357c;fill-opacity:1;fill-rule:nonzero;stroke:none" id="path3772-7"/><path d="m 659.8218,32.7422 0,-0.436 0.061,0 c 0.051,0 0.086,0.008 0.109,0.018 0.021,0.012 0.038,0.031 0.052,0.061 0.011,0.027 0.017,0.074 0.017,0.138 0,0.082 -0.013,0.143 -0.041,0.172 -0.027,0.031 -0.073,0.047 -0.136,0.047 l -0.062,0 z m -0.245,0.182 0.365,0 c 0.07,0 0.13,-0.012 0.173,-0.032 0.044,-0.021 0.081,-0.05 0.11,-0.086 0.029,-0.033 0.051,-0.078 0.063,-0.125 0.013,-0.048 0.019,-0.099 0.019,-0.154 0,-0.086 -0.009,-0.152 -0.029,-0.195 -0.019,-0.049 -0.045,-0.088 -0.08,-0.121 -0.033,-0.03 -0.071,-0.053 -0.111,-0.061 -0.055,-0.015 -0.102,-0.023 -0.145,-0.023 l -0.365,0 0,0.797 z" style="fill:#26357c;fill-opacity:1;fill-rule:nonzero;stroke:none" id="path3776-6"/><path d="m 660.4692,32.9238 0.658,0 0,-0.17 -0.412,0 0,-0.129 0.383,0 0,-0.16 -0.383,0 0,-0.158 0.424,0 0,-0.18 -0.67,0 0,0.797 z" style="fill:#26357c;fill-opacity:1;fill-rule:nonzero;stroke:none" id="path3780-2"/><path d="m 661.7085,32.9238 0.246,0 0,-0.602 0.384,0 0,-0.195 -0.63,0 0,0.797 z" style="fill:#26357c;fill-opacity:1;fill-rule:nonzero;stroke:none" id="path3784-9"/><path d="m 662.9204,32.4316 -0.087,0.283 -0.087,-0.283 0.174,0 z m 0.052,-0.172 -0.279,0 -0.039,-0.133 -0.251,0 0.298,0.797 0.268,0 0.299,-0.797 -0.256,0 -0.04,0.133 z" style="fill:#26357c;fill-opacity:1;fill-rule:nonzero;stroke:none" id="path3788-6"/><path d="m 663.7837,32.9238 0.246,0 0,-0.602 0.383,0 0,-0.195 -0.629,0 0,0.797 z" style="fill:#26357c;fill-opacity:1;fill-rule:nonzero;stroke:none" id="path3792-0"/><path d="m 664.7534,32.5234 c 0,-0.082 0.015,-0.139 0.044,-0.174 0.031,-0.035 0.072,-0.053 0.123,-0.053 0.053,0 0.094,0.018 0.122,0.053 0.03,0.035 0.044,0.094 0.044,0.186 0,0.072 -0.016,0.129 -0.045,0.164 -0.031,0.031 -0.072,0.049 -0.123,0.049 -0.051,0 -0.09,-0.018 -0.121,-0.051 -0.029,-0.037 -0.044,-0.094 -0.044,-0.174 m -0.245,0 c 0,0.129 0.035,0.232 0.108,0.305 0.073,0.07 0.173,0.109 0.302,0.109 0.133,0 0.233,-0.037 0.307,-0.107 0.07,-0.071 0.107,-0.17 0.107,-0.301 0,-0.092 -0.017,-0.168 -0.047,-0.227 -0.031,-0.06 -0.077,-0.107 -0.136,-0.14 -0.059,-0.032 -0.133,-0.049 -0.221,-0.049 -0.089,0 -0.164,0.014 -0.223,0.043 -0.058,0.029 -0.105,0.076 -0.142,0.135 -0.037,0.062 -0.055,0.14 -0.055,0.232" style="fill:#26357c;fill-opacity:1;fill-rule:nonzero;stroke:none" id="path3796-5"/><path d="m 665.897,32.4141 0,0.168 0.379,0 0,-0.34 c -0.072,-0.049 -0.137,-0.084 -0.192,-0.101 -0.056,-0.02 -0.123,-0.028 -0.199,-0.028 -0.093,0 -0.172,0.018 -0.23,0.045 -0.06,0.035 -0.107,0.084 -0.139,0.149 -0.033,0.064 -0.049,0.134 -0.049,0.218 0,0.086 0.018,0.162 0.054,0.225 0.034,0.066 0.087,0.113 0.157,0.146 0.053,0.028 0.125,0.041 0.217,0.041 0.088,0 0.154,-0.011 0.197,-0.025 0.043,-0.018 0.081,-0.041 0.108,-0.076 0.029,-0.031 0.051,-0.072 0.066,-0.125 l -0.238,-0.043 c -0.01,0.031 -0.026,0.055 -0.049,0.068 -0.023,0.018 -0.053,0.024 -0.09,0.024 -0.053,0 -0.096,-0.018 -0.129,-0.055 -0.031,-0.037 -0.047,-0.098 -0.047,-0.178 0,-0.086 0.016,-0.146 0.049,-0.183 0.032,-0.037 0.077,-0.057 0.135,-0.057 0.027,0 0.055,0.004 0.078,0.012 0.025,0.008 0.053,0.021 0.087,0.041 l 0,0.074 -0.165,0 z" style="fill:#26357c;fill-opacity:1;fill-rule:nonzero;stroke:none" id="path3800-8"/><path id="path3802-8" style="fill:#26357c;fill-opacity:1;fill-rule:nonzero;stroke:none" d="m 666.465,32.924 0.246,0 0,-0.797 -0.246,0 0,0.797 z"/><path d="m 666.8774,32.3887 0.234,0.016 c 0.006,-0.037 0.016,-0.067 0.031,-0.088 0.026,-0.033 0.063,-0.047 0.11,-0.047 0.035,0 0.062,0.008 0.08,0.025 0.02,0.016 0.029,0.037 0.029,0.057 0,0.019 -0.009,0.039 -0.027,0.055 -0.02,0.017 -0.061,0.031 -0.125,0.046 -0.109,0.026 -0.186,0.059 -0.232,0.096 -0.045,0.041 -0.069,0.09 -0.069,0.156 0,0.039 0.012,0.077 0.034,0.114 0.025,0.037 0.06,0.064 0.109,0.086 0.047,0.021 0.111,0.033 0.195,0.033 0.102,0 0.178,-0.024 0.233,-0.059 0.052,-0.041 0.084,-0.097 0.094,-0.179 l -0.231,-0.014 c -0.006,0.037 -0.02,0.06 -0.039,0.078 -0.021,0.016 -0.047,0.023 -0.082,0.023 -0.028,0 -0.049,-0.005 -0.064,-0.017 -0.015,-0.012 -0.022,-0.027 -0.022,-0.045 0,-0.014 0.007,-0.024 0.017,-0.033 0.012,-0.012 0.04,-0.024 0.083,-0.032 0.107,-0.021 0.183,-0.046 0.232,-0.068 0.046,-0.021 0.08,-0.053 0.101,-0.09 0.022,-0.033 0.032,-0.074 0.032,-0.117 0,-0.051 -0.014,-0.098 -0.043,-0.141 -0.028,-0.044 -0.068,-0.076 -0.119,-0.095 -0.049,-0.022 -0.114,-0.035 -0.19,-0.035 -0.137,0 -0.228,0.027 -0.281,0.078 -0.053,0.052 -0.082,0.119 -0.09,0.197" style="fill:#26357c;fill-opacity:1;fill-rule:nonzero;stroke:none" id="path3806-5"/><path d="m 667.6997,32.9238 0.746,0 0,-0.199 -0.248,0 0,-0.598 -0.246,0 0,0.598 -0.252,0 0,0.199 z" style="fill:#26357c;fill-opacity:1;fill-rule:nonzero;stroke:none" id="path3810-9"/><path id="path3812-2" style="fill:#26357c;fill-opacity:1;fill-rule:nonzero;stroke:none" d="m 668.602,32.924 0.246,0 0,-0.797 -0.246,0 0,0.797 z"/><path d="m 669.5767,32.3672 c 0.018,0.037 0.027,0.088 0.027,0.16 0,0.078 -0.014,0.139 -0.043,0.172 -0.031,0.031 -0.072,0.049 -0.125,0.049 -0.048,0 -0.088,-0.018 -0.119,-0.051 -0.03,-0.037 -0.045,-0.092 -0.045,-0.164 0,-0.088 0.015,-0.148 0.045,-0.184 0.03,-0.035 0.071,-0.052 0.123,-0.052 0.016,0 0.031,0.002 0.047,0.006 -0.021,0.019 -0.053,0.041 -0.099,0.056 l 0.039,0.088 c 0.021,-0.004 0.039,-0.01 0.051,-0.016 0.012,-0.003 0.037,-0.019 0.071,-0.044 0.008,-0.004 0.016,-0.012 0.028,-0.02 m 0.187,-0.123 c 0.03,-0.022 0.05,-0.037 0.06,-0.043 0.015,-0.006 0.034,-0.016 0.057,-0.023 l -0.07,-0.141 c -0.033,0.019 -0.066,0.037 -0.1,0.06 -0.034,0.024 -0.057,0.04 -0.072,0.053 -0.054,-0.023 -0.122,-0.037 -0.204,-0.037 -0.12,0 -0.214,0.033 -0.286,0.094 -0.081,0.074 -0.123,0.18 -0.123,0.316 0,0.129 0.036,0.231 0.11,0.305 0.072,0.07 0.171,0.109 0.301,0.109 0.131,0 0.234,-0.037 0.306,-0.107 0.071,-0.07 0.107,-0.174 0.107,-0.305 0,-0.117 -0.029,-0.211 -0.086,-0.281" style="fill:#26357c;fill-opacity:1;fill-rule:nonzero;stroke:none" id="path3816-1"/><path d="m 670.5317,32.9238 0.246,0 0,-0.477 c 0,-0.046 -0.006,-0.089 -0.021,-0.13 -0.014,-0.041 -0.038,-0.08 -0.069,-0.112 -0.032,-0.033 -0.064,-0.051 -0.099,-0.064 -0.047,-0.02 -0.105,-0.028 -0.171,-0.028 -0.038,0 -0.081,0.002 -0.126,0.008 -0.047,0.006 -0.085,0.016 -0.115,0.033 -0.032,0.014 -0.059,0.04 -0.086,0.071 -0.024,0.027 -0.042,0.058 -0.051,0.09 -0.016,0.048 -0.024,0.093 -0.024,0.132 l 0,0.477 0.245,0 0,-0.488 c 0,-0.043 0.013,-0.076 0.037,-0.1 0.025,-0.023 0.058,-0.037 0.099,-0.037 0.043,0 0.075,0.012 0.101,0.035 0.024,0.026 0.034,0.059 0.034,0.102 l 0,0.488 z" style="fill:#26357c;fill-opacity:1;fill-rule:nonzero;stroke:none" id="path3820-7"/><path d="m 670.9731,32.9238 0.659,0 0,-0.17 -0.412,0 0,-0.129 0.382,0 0,-0.16 -0.382,0 0,-0.158 0.424,0 0,-0.18 -0.671,0 0,0.797 z" style="fill:#26357c;fill-opacity:1;fill-rule:nonzero;stroke:none" id="path3824-2"/><path d="m 631.7412,34.9199 0.073,-0.066 0.094,0.082 -0.116,0.105 -0.076,-0.064 -0.07,0.064 -0.093,-0.08 0.113,-0.107 0.075,0.066 z" style="fill:#26357c;fill-opacity:1;fill-rule:nonzero;stroke:none" id="path3828-1"/><path d="m 632.9043,33.8984 -0.07,0.064 -0.095,-0.08 0.116,-0.109 0.076,0.068 0.07,-0.068 0.091,0.082 -0.113,0.107 -0.075,-0.064 z" style="fill:#26357c;fill-opacity:1;fill-rule:nonzero;stroke:none" id="path3832-9"/><path d="m 635.604,33.8984 -0.072,0.064 -0.093,-0.08 0.114,-0.109 0.077,0.068 0.071,-0.068 0.09,0.082 -0.113,0.107 -0.074,-0.064 z" style="fill:#26357c;fill-opacity:1;fill-rule:nonzero;stroke:none" id="path3836-55"/><path d="m 636.6963,34.7129 0.07,-0.064 0.097,0.082 -0.116,0.109 -0.076,-0.068 -0.071,0.068 -0.092,-0.084 0.113,-0.107 0.075,0.064 z" style="fill:#26357c;fill-opacity:1;fill-rule:nonzero;stroke:none" id="path3840-23"/><path d="m 639.5991,33.8984 -0.07,0.064 -0.096,-0.08 0.116,-0.109 0.075,0.068 0.072,-0.068 0.09,0.082 -0.113,0.107 -0.074,-0.064 z" style="fill:#26357c;fill-opacity:1;fill-rule:nonzero;stroke:none" id="path3844-22"/><path d="m 640.6294,33.9063 0.116,-0.109 0.09,0.086 -0.115,0.105 -0.091,-0.082 z" style="fill:#26357c;fill-opacity:1;fill-rule:nonzero;stroke:none" id="path3848-5"/><path d="m 631.4678,34.3516 c 0.005,0.018 0.017,0.033 0.037,0.045 l 0.207,0.113 0.042,-0.201 -0.286,0.043 z m 9.549,0.076 c -0.092,0.031 -0.194,0.08 -0.308,0.139 -0.053,0.027 -0.093,0.043 -0.122,0.043 -0.037,0 -0.078,-0.022 -0.121,-0.065 l -0.058,-0.056 c 0.018,0.002 0.03,0.004 0.037,0.004 0.036,0 0.083,-0.014 0.142,-0.043 0.06,-0.03 0.117,-0.065 0.172,-0.11 -0.032,-0.011 -0.061,-0.029 -0.088,-0.05 l -0.423,0 -0.069,0 -0.472,0 -0.067,0.232 -0.108,-0.108 0.037,-0.124 -0.195,0 -0.088,0 -0.904,0 c 0.013,0.042 0.02,0.082 0.02,0.109 0,0.08 -0.029,0.15 -0.086,0.219 l -0.098,-0.131 c 0.034,-0.049 0.056,-0.098 0.063,-0.147 0.004,-0.023 0.007,-0.037 0.007,-0.045 l 0,-0.005 -0.167,0 -0.15,0.322 -0.09,-0.115 0.094,-0.207 -0.261,0 -0.152,0.322 -0.087,-0.115 0.092,-0.207 -0.186,0 -0.304,0 -0.263,0 -0.066,0.232 -0.109,-0.108 0.037,-0.124 -0.655,0 -0.046,0 -0.264,0 -0.066,0.232 -0.108,-0.108 0.037,-0.124 -0.226,0 -0.057,0 -0.752,0 c 10e-4,0 0.003,10e-4 0.003,0.007 0,0.018 -0.018,0.047 -0.051,0.082 l -0.387,0.426 0.487,0.145 0.074,0.158 -0.634,-0.176 -0.07,-0.16 -0.01,-0.018 c -0.007,-0.019 -0.011,-0.029 -0.011,-0.041 0,-0.013 0.007,-0.027 0.019,-0.035 l 0.087,-0.084 0.026,0.031 0.305,-0.335 -0.508,0 -0.592,0 -0.264,0 -0.067,0.232 -0.108,-0.108 0.038,-0.124 -0.154,0 -0.129,0 -0.691,0 -0.095,0.466 -0.125,-0.107 0.009,-0.041 -0.245,-0.131 c -0.028,-0.018 -0.046,-0.033 -0.052,-0.049 -0.008,-0.014 -0.011,-0.029 -0.015,-0.039 l -0.064,-0.191 0.403,-0.061 0.055,0.08 0.023,-0.105 0.797,0 0.129,0 0.138,0 0.05,0.058 0.019,-0.058 0.348,0 0.592,0 0.572,0 0.034,0.054 0.046,-0.054 0.77,0 0.057,0 0.211,0 0.049,0.058 0.018,-0.058 0.349,0 0.046,0 0.641,0 0.048,0.058 0.019,-0.058 0.348,0 0.304,0 0.182,0 0.054,0.068 0.029,-0.068 0.328,0 0.05,0.068 0.029,-0.068 0.255,0 0.032,0.068 0.039,-0.068 0.907,0 0.088,0 0.181,0 0.049,0.058 0.017,-0.058 0.558,0 0.069,0 0.362,0 c 0.027,0 0.046,0.004 0.056,0.008 0.01,0.003 0.025,0.017 0.047,0.039 0.073,0.066 0.16,0.097 0.263,0.097 0.037,0 0.084,-0.004 0.138,-0.015 l 0.096,0.152 -0.022,0 c -0.062,0.006 -0.118,0.018 -0.171,0.035" style="fill:#26357c;fill-opacity:1;fill-rule:nonzero;stroke:none" id="path3852-2"/><path d="m 641.5684,34.2891 c -0.046,0 -0.069,0.018 -0.069,0.055 0,0.025 0.009,0.052 0.03,0.078 0.02,0.023 0.042,0.037 0.065,0.037 0.056,0 0.09,-0.057 0.104,-0.17 l -0.13,0 z m 1.701,0.766 c -0.013,0.013 -0.021,0.033 -0.022,0.06 l -0.067,-0.111 -0.012,-0.02 c -0.009,-0.013 -0.013,-0.025 -0.013,-0.035 0,-0.019 0.015,-0.035 0.046,-0.045 l 0.05,-0.615 -0.209,0 -0.099,0 -0.026,0 c -0.031,0 -0.047,0.012 -0.047,0.037 l 0,0.785 -0.143,-0.152 0,-0.67 -0.153,0 -0.065,0 -0.696,0 c -0.01,0.086 -0.037,0.162 -0.077,0.229 -0.041,0.06 -0.083,0.095 -0.127,0.095 -0.032,0 -0.06,-0.012 -0.085,-0.039 -0.041,-0.047 -0.077,-0.096 -0.103,-0.154 -0.028,-0.063 -0.042,-0.119 -0.042,-0.17 0,-0.033 0.011,-0.063 0.033,-0.088 0.021,-0.025 0.049,-0.041 0.081,-0.047 0.015,-0.002 0.046,-0.004 0.091,-0.004 l 0.125,0 c -0.023,-0.066 -0.059,-0.115 -0.106,-0.154 -0.048,-0.039 -0.099,-0.059 -0.156,-0.059 -0.034,0 -0.073,0.008 -0.118,0.026 0.091,-0.117 0.159,-0.176 0.208,-0.176 0.07,0 0.137,0.064 0.207,0.193 0.031,0.057 0.051,0.114 0.061,0.17 l 0.7,0 0.069,0 0.114,0 0.039,0.055 c 0.007,-0.035 0.033,-0.055 0.078,-0.055 l 0.138,0 0.099,0 0.248,0 0.011,0.03 0.028,0.08 0.002,0.006 c 0.024,0.074 0.037,0.128 0.037,0.166 l -0.032,0.46 0.034,-0.011 0.059,0.136 -0.113,0.051 c -0.025,0.008 -0.041,0.018 -0.047,0.026" style="fill:#26357c;fill-opacity:1;fill-rule:nonzero;stroke:none" id="path3856-53"/><path d="m 643.7954,35.1113 -0.149,-0.186 c 0.01,-0.06 0.017,-0.152 0.024,-0.277 0.008,-0.15 0.013,-0.266 0.013,-0.357 0,-0.065 -0.004,-0.145 -0.012,-0.239 0.063,0.092 0.103,0.163 0.116,0.213 0.02,0.065 0.028,0.145 0.028,0.231 0,0.09 -0.004,0.201 -0.017,0.334 l -10e-4,0.023 0.034,0.039 -0.036,0.219 z" style="fill:#26357c;fill-opacity:1;fill-rule:nonzero;stroke:none" id="path3860-7"/><path d="m 646.4937,34.4863 c 0.042,-0.062 0.065,-0.127 0.068,-0.197 l -0.168,0 -0.754,0 -0.273,0 0,0.822 -0.144,-0.152 0.007,-0.905 c -0.042,-0.037 -0.09,-0.066 -0.148,-0.091 -0.058,-0.026 -0.112,-0.038 -0.16,-0.038 -0.061,0 -0.108,0.022 -0.144,0.063 -0.035,0.045 -0.053,0.096 -0.053,0.168 0,0.06 0.013,0.146 0.035,0.254 -0.075,-0.16 -0.11,-0.291 -0.11,-0.391 0,-0.072 0.024,-0.135 0.075,-0.185 0.05,-0.049 0.112,-0.077 0.183,-0.077 0.106,0 0.223,0.042 0.356,0.129 0.019,0.041 0.035,0.079 0.043,0.11 l 0.027,0.088 0.01,0.027 0.296,0 0.754,0 0.199,0 c 0.022,0.055 0.038,0.094 0.046,0.115 0.024,0.073 0.039,0.131 0.039,0.176 0,0.076 -0.03,0.145 -0.086,0.215 l -0.098,-0.131 z" style="fill:#26357c;fill-opacity:1;fill-rule:nonzero;stroke:none" id="path3864-1"/><path d="m 646.48,34.7949 c -0.031,-0.033 -0.049,-0.072 -0.055,-0.115 0.054,0.064 0.123,0.099 0.214,0.111 l 0.032,0.088 c -0.027,-0.014 -0.052,-0.016 -0.075,-0.016 -0.054,0 -0.097,0.016 -0.132,0.049 0.026,0.037 0.064,0.053 0.11,0.053 0.012,0 0.025,-0.002 0.043,-0.008 0.015,0.025 0.024,0.047 0.024,0.063 0,0.023 -0.016,0.031 -0.049,0.031 -0.051,0 -0.092,-0.018 -0.124,-0.055 -0.039,-0.045 -0.058,-0.086 -0.058,-0.117 0,-0.045 0.023,-0.072 0.07,-0.084" style="fill:#26357c;fill-opacity:1;fill-rule:nonzero;stroke:none" id="path3868-2"/><path d="m 648.4751,34.4863 c 0.033,-0.049 0.055,-0.098 0.062,-0.146 0.004,-0.024 0.006,-0.038 0.006,-0.045 l 0,-0.006 -0.166,0 -0.15,0.322 -0.09,-0.115 0.095,-0.207 -0.262,0 -0.151,0.322 -0.088,-0.115 0.093,-0.207 -0.198,0 -0.293,0 -0.212,0 c -0.035,0 -0.055,0.002 -0.061,0.013 -0.004,0.008 -0.007,0.028 -0.007,0.059 l 0,0.75 -0.141,-0.148 0,-0.75 10e-4,-0.036 c 0.002,-0.031 0.011,-0.046 0.028,-0.054 0.015,-0.008 0.031,-0.012 0.045,-0.012 l 0.347,0 0.293,0 0.194,0 0.054,0.068 0.027,-0.068 0.329,0 0.052,0.068 0.028,-0.068 0.263,0 c 0.056,0.131 0.084,0.229 0.084,0.287 0,0.078 -0.028,0.149 -0.086,0.219 l -0.096,-0.131 z" style="fill:#26357c;fill-opacity:1;fill-rule:nonzero;stroke:none" id="path3872-7"/><path d="m 649.0688,34.2891 c -0.046,0 -0.07,0.018 -0.07,0.055 0,0.025 0.01,0.052 0.031,0.078 0.021,0.023 0.043,0.037 0.065,0.037 0.056,0 0.089,-0.057 0.103,-0.17 l -0.129,0 z m 1.055,0.766 c -0.012,0.013 -0.02,0.033 -0.02,0.06 l -0.066,-0.111 -0.015,-0.02 c -0.008,-0.013 -0.013,-0.025 -0.013,-0.035 0,-0.019 0.015,-0.035 0.047,-0.045 l 0.049,-0.615 -0.242,0 -0.066,0 -0.484,0 c -0.011,0.086 -0.036,0.162 -0.077,0.229 -0.041,0.06 -0.082,0.095 -0.127,0.095 -0.031,0 -0.06,-0.012 -0.086,-0.039 -0.04,-0.047 -0.074,-0.096 -0.102,-0.154 -0.028,-0.063 -0.04,-0.119 -0.04,-0.17 0,-0.033 0.009,-0.063 0.031,-0.088 0.022,-0.025 0.049,-0.041 0.082,-0.047 0.014,-0.002 0.046,-0.004 0.09,-0.004 l 0.127,0 c -0.025,-0.066 -0.061,-0.115 -0.108,-0.154 -0.048,-0.039 -0.098,-0.059 -0.154,-0.059 -0.035,0 -0.074,0.008 -0.12,0.026 0.091,-0.117 0.161,-0.176 0.21,-0.176 0.068,0 0.136,0.064 0.205,0.193 0.031,0.057 0.051,0.114 0.062,0.17 l 0.491,0 0.066,0 0.281,0 0.013,0.03 0.026,0.08 0.002,0.006 c 0.026,0.074 0.037,0.128 0.037,0.166 l -0.031,0.46 0.033,-0.011 0.061,0.136 -0.113,0.051 c -0.025,0.008 -0.042,0.018 -0.049,0.026" style="fill:#26357c;fill-opacity:1;fill-rule:nonzero;stroke:none" id="path3876-2"/><path d="m 650.6489,35.1113 -0.148,-0.186 c 0.009,-0.06 0.018,-0.152 0.025,-0.277 0.009,-0.15 0.013,-0.266 0.013,-0.357 0,-0.065 -0.004,-0.145 -0.012,-0.239 0.063,0.092 0.102,0.163 0.115,0.213 0.021,0.065 0.028,0.145 0.028,0.231 0,0.09 -0.005,0.201 -0.017,0.334 l -0.001,0.023 0.034,0.039 -0.037,0.219 z" style="fill:#26357c;fill-opacity:1;fill-rule:nonzero;stroke:none" id="path3880-7"/><path d="m 651.5278,34.2891 c -0.047,0 -0.068,0.018 -0.068,0.055 0,0.025 0.009,0.052 0.029,0.078 0.019,0.023 0.043,0.037 0.066,0.037 0.054,0 0.088,-0.057 0.102,-0.17 l -0.129,0 z m 0.039,0.324 c -0.03,0 -0.059,-0.012 -0.084,-0.039 -0.041,-0.047 -0.076,-0.096 -0.102,-0.154 -0.028,-0.063 -0.041,-0.119 -0.041,-0.17 0,-0.033 0.011,-0.063 0.032,-0.088 0.021,-0.025 0.049,-0.041 0.082,-0.047 0.015,-0.002 0.045,-0.004 0.091,-0.004 l 0.124,0 c -0.024,-0.066 -0.06,-0.115 -0.106,-0.154 -0.047,-0.039 -0.099,-0.059 -0.156,-0.059 -0.034,0 -0.074,0.008 -0.119,0.026 0.092,-0.117 0.161,-0.176 0.209,-0.176 0.044,0 0.09,0.029 0.142,0.094 0.092,0.115 0.137,0.238 0.137,0.379 0,0.121 -0.03,0.224 -0.092,0.314 -0.038,0.053 -0.076,0.078 -0.117,0.078" style="fill:#26357c;fill-opacity:1;fill-rule:nonzero;stroke:none" id="path3884-3"/><path d="m 654.7241,34.8809 0.071,-0.068 0.094,0.084 -0.116,0.105 -0.077,-0.062 -0.069,0.062 -0.091,-0.08 0.113,-0.109 0.075,0.068 z" style="fill:#26357c;fill-opacity:1;fill-rule:nonzero;stroke:none" id="path3888-1"/><path d="m 656.2231,34.7344 -0.115,0.107 -0.091,-0.082 0.115,-0.105 0.091,0.08 z" style="fill:#26357c;fill-opacity:1;fill-rule:nonzero;stroke:none" id="path3892-2"/><path d="m 654.7876,34.3574 -0.079,-0.047 c -0.009,-0.004 -0.015,-0.006 -0.017,-0.008 -0.004,0 -0.011,0.004 -0.019,0.01 l -0.086,0.066 c 0.014,0.03 0.037,0.059 0.069,0.09 0.032,0.03 0.06,0.049 0.081,0.049 0.041,0 0.06,-0.035 0.06,-0.098 0,-0.023 -0.002,-0.044 -0.009,-0.062 m 2.682,0.697 c -0.013,0.014 -0.02,0.033 -0.021,0.061 l -0.067,-0.112 -0.012,-0.019 c -0.009,-0.014 -0.013,-0.025 -0.013,-0.035 0,-0.02 0.015,-0.035 0.045,-0.045 l 0.052,-0.615 -0.205,0 -0.106,0 -0.025,0 c -0.03,0 -0.046,0.011 -0.046,0.037 l 0,0.785 -0.143,-0.152 0,-0.67 -0.143,0 -0.074,0 -0.478,0 -0.065,0.232 -0.11,-0.107 0.038,-0.125 -0.184,0 -0.1,0 -0.971,0 c 0.05,0.08 0.075,0.152 0.075,0.22 0,0.047 -0.012,0.09 -0.039,0.121 -0.026,0.034 -0.059,0.049 -0.096,0.049 -0.073,0 -0.168,-0.086 -0.282,-0.254 -0.036,-0.052 -0.054,-0.095 -0.054,-0.119 0,-0.008 0.002,-0.015 0.004,-0.017 l -0.086,0 -0.166,0 -0.896,0 0,0.822 -0.147,-0.152 0.008,-0.905 c -0.04,-0.037 -0.092,-0.066 -0.148,-0.092 -0.057,-0.025 -0.112,-0.037 -0.161,-0.037 -0.06,0 -0.107,0.022 -0.142,0.063 -0.035,0.045 -0.053,0.096 -0.053,0.168 0,0.06 0.012,0.146 0.032,0.254 -0.071,-0.16 -0.108,-0.291 -0.108,-0.391 0,-0.072 0.024,-0.135 0.075,-0.185 0.05,-0.049 0.11,-0.077 0.185,-0.077 0.103,0 0.221,0.041 0.355,0.129 0.02,0.041 0.033,0.078 0.043,0.11 l 0.026,0.088 0.009,0.027 0.922,0 0.166,0 0.213,0 0.053,0.045 0.071,-0.045 1.112,0 0.1,0 0.17,0 0.048,0.059 0.018,-0.059 0.558,0 0.079,0 0.104,0 0.039,0.055 c 0.005,-0.036 0.034,-0.055 0.078,-0.055 l 0.136,0 0.106,0 0.244,0 0.012,0.029 0.025,0.08 0.003,0.006 c 0.025,0.074 0.037,0.129 0.037,0.166 l -0.03,0.461 0.033,-0.012 0.059,0.137 -0.114,0.051 c -0.025,0.008 -0.041,0.017 -0.048,0.025" style="fill:#26357c;fill-opacity:1;fill-rule:nonzero;stroke:none" id="path3896-1"/><path d="m 658.8423,34.9199 0.072,-0.066 0.094,0.082 -0.115,0.105 -0.076,-0.064 -0.069,0.064 -0.093,-0.08 0.113,-0.107 0.074,0.066 z" style="fill:#26357c;fill-opacity:1;fill-rule:nonzero;stroke:none" id="path3900-3"/><path d="m 660.0054,33.8984 -0.069,0.064 -0.096,-0.08 0.115,-0.109 0.076,0.068 0.073,-0.068 0.089,0.082 -0.113,0.107 -0.075,-0.064 z" style="fill:#26357c;fill-opacity:1;fill-rule:nonzero;stroke:none" id="path3904-65"/><path d="m 661.4146,34.7344 -0.116,0.107 -0.091,-0.082 0.115,-0.105 0.092,0.08 z" style="fill:#26357c;fill-opacity:1;fill-rule:nonzero;stroke:none" id="path3908-9"/><path d="m 662.2778,34.2891 0.119,0.074 0.061,0.039 c 0.112,0.076 0.189,0.112 0.228,0.112 0.045,0 0.09,-0.024 0.135,-0.067 0.043,-0.045 0.072,-0.097 0.088,-0.158 l -0.631,0 z m -3.709,0.062 c 0.004,0.018 0.018,0.034 0.037,0.045 l 0.207,0.114 0.041,-0.201 -0.285,0.042 z m 4.271,0.268 c -0.035,0.02 -0.064,0.029 -0.09,0.029 -0.04,0 -0.107,-0.029 -0.2,-0.088 l -0.094,-0.064 -0.065,-0.037 -0.097,-0.063 c 0.018,0.049 0.027,0.1 0.027,0.159 0,0.023 0,0.041 -0.002,0.058 l -0.017,0.244 0.035,-0.011 0.058,0.138 -0.084,0.035 c -0.043,0.018 -0.068,0.034 -0.078,0.043 -0.01,0.01 -0.014,0.028 -0.017,0.057 l -0.073,-0.115 c -0.015,-0.026 -0.023,-0.041 -0.023,-0.051 0,-0.018 0.017,-0.031 0.047,-0.041 l 0.049,-0.566 -0.094,-0.057 -0.172,0 -0.053,0 -0.473,0 -0.065,0.232 -0.109,-0.107 0.038,-0.125 -0.206,0 -0.077,0 -0.891,0 -0.065,0.232 -0.11,-0.107 0.038,-0.125 -0.176,0 -0.107,0 -0.69,0 -0.095,0.467 -0.125,-0.108 0.008,-0.041 -0.244,-0.131 c -0.03,-0.017 -0.047,-0.033 -0.051,-0.048 -0.008,-0.014 -0.013,-0.03 -0.016,-0.039 l -0.064,-0.192 0.402,-0.06 0.055,0.08 0.023,-0.106 0.797,0 0.107,0 0.161,0 0.05,0.059 0.016,-0.059 0.977,0 0.077,0 0.19,0 0.049,0.059 0.018,-0.059 0.558,0 0.053,0 0.979,0 0.032,0.073 c 0.04,0.093 0.06,0.156 0.06,0.183 0,0.041 -0.016,0.084 -0.053,0.131 -0.034,0.053 -0.077,0.092 -0.128,0.121" style="fill:#26357c;fill-opacity:1;fill-rule:nonzero;stroke:none" id="path3912-5"/><path d="m 663.4067,34.2891 c -0.046,0 -0.069,0.018 -0.069,0.055 0,0.025 0.008,0.052 0.03,0.078 0.02,0.023 0.043,0.037 0.066,0.037 0.054,0 0.09,-0.057 0.104,-0.17 l -0.131,0 z m 1.055,0.766 c -0.012,0.013 -0.02,0.033 -0.021,0.06 l -0.067,-0.111 -0.014,-0.02 c -0.008,-0.013 -0.012,-0.025 -0.012,-0.035 0,-0.019 0.016,-0.035 0.046,-0.045 l 0.051,-0.615 -0.19,0 -0.328,0 -0.276,0 c -0.01,0.086 -0.035,0.162 -0.076,0.229 -0.041,0.06 -0.082,0.095 -0.127,0.095 -0.031,0 -0.06,-0.012 -0.086,-0.039 -0.041,-0.047 -0.075,-0.096 -0.101,-0.154 -0.028,-0.063 -0.041,-0.119 -0.041,-0.17 0,-0.033 0.009,-0.063 0.033,-0.088 0.019,-0.025 0.047,-0.041 0.08,-0.047 0.015,-0.002 0.045,-0.004 0.092,-0.004 l 0.125,0 c -0.026,-0.066 -0.062,-0.115 -0.108,-0.154 -0.047,-0.039 -0.098,-0.059 -0.155,-0.059 -0.034,0 -0.074,0.008 -0.12,0.026 0.092,-0.117 0.162,-0.176 0.211,-0.176 0.067,0 0.137,0.064 0.205,0.193 0.031,0.057 0.052,0.114 0.062,0.17 l 0.282,0 0.328,0 0.228,0 0.013,0.03 0.026,0.08 0.002,0.006 c 0.026,0.074 0.038,0.128 0.038,0.166 l -0.03,0.46 0.031,-0.011 0.061,0.136 -0.113,0.051 c -0.028,0.008 -0.043,0.018 -0.049,0.026" style="fill:#26357c;fill-opacity:1;fill-rule:nonzero;stroke:none" id="path3916-1"/><path d="m 664.9888,35.1113 -0.149,-0.186 c 0.008,-0.06 0.016,-0.152 0.024,-0.277 0.008,-0.15 0.014,-0.266 0.014,-0.357 0,-0.065 -0.005,-0.145 -0.012,-0.239 0.062,0.092 0.102,0.163 0.115,0.213 0.019,0.065 0.029,0.145 0.029,0.231 0,0.09 -0.006,0.201 -0.018,0.334 l -0.002,0.023 0.033,0.039 -0.034,0.219 z" style="fill:#26357c;fill-opacity:1;fill-rule:nonzero;stroke:none" id="path3920-8"/><path d="m 666.2817,34.9199 0.071,-0.066 0.095,0.082 -0.116,0.105 -0.077,-0.064 -0.067,0.064 -0.095,-0.08 0.115,-0.107 0.074,0.066 z" style="fill:#26357c;fill-opacity:1;fill-rule:nonzero;stroke:none" id="path3924-4"/><path d="m 666.0083,34.3516 c 0.004,0.018 0.017,0.033 0.036,0.045 l 0.207,0.113 0.041,-0.201 -0.284,0.043 z m 2.095,0.756 -0.634,-0.176 -0.072,-0.16 -0.008,-0.018 c -0.008,-0.019 -0.012,-0.029 -0.012,-0.041 0,-0.009 0.006,-0.023 0.02,-0.035 0.008,-0.01 0.015,-0.015 0.02,-0.021 l 0.065,-0.063 0.028,0.031 0.304,-0.335 -0.563,0 -0.537,0 -0.274,0 -0.094,0.466 -0.124,-0.107 0.009,-0.041 -0.246,-0.131 c -0.028,-0.018 -0.045,-0.033 -0.052,-0.049 -0.007,-0.014 -0.011,-0.029 -0.015,-0.039 l -0.063,-0.191 0.401,-0.061 0.056,0.08 0.022,-0.105 0.38,0 0.537,0 0.637,0 0.056,0.113 0.019,0.035 c 0.01,0.016 0.014,0.03 0.014,0.039 0,0.016 -0.017,0.045 -0.049,0.08 l -0.387,0.426 0.488,0.145 0.074,0.158 z" style="fill:#26357c;fill-opacity:1;fill-rule:nonzero;stroke:none" id="path3928-6"/><path d="m 670.1235,34.8047 0.07,-0.064 0.094,0.082 -0.116,0.103 -0.077,-0.06 -0.069,0.06 -0.089,-0.08 0.11,-0.105 0.077,0.064 z" style="fill:#26357c;fill-opacity:1;fill-rule:nonzero;stroke:none" id="path3932-2"/><path d="m 670.1851,35.0332 -0.116,0.111 -0.09,-0.088 0.115,-0.103 0.091,0.08 z" style="fill:#26357c;fill-opacity:1;fill-rule:nonzero;stroke:none" id="path3936-7"/><path d="m 671.1665,35.0547 c -0.014,0.014 -0.02,0.033 -0.02,0.061 l -0.067,-0.112 -0.015,-0.019 c -0.007,-0.014 -0.011,-0.026 -0.011,-0.035 0,-0.02 0.014,-0.036 0.046,-0.045 l 0.049,-0.616 -0.234,0 -0.074,0 -0.278,0 c 0.012,0.043 0.018,0.082 0.018,0.11 0,0.08 -0.029,0.15 -0.086,0.219 l -0.096,-0.131 c 0.034,-0.049 0.053,-0.098 0.063,-0.147 0.004,-0.023 0.006,-0.037 0.006,-0.045 l 0,-0.006 -0.166,0 -0.153,0.323 -0.087,-0.116 0.093,-0.207 -0.259,0 -0.154,0.323 -0.087,-0.116 0.092,-0.207 -0.826,0 -0.081,0 -0.276,0 c -0.014,0.069 -0.045,0.133 -0.092,0.2 l -0.1,-0.118 c 0.027,-0.037 0.05,-0.068 0.069,-0.101 0.023,-0.041 0.038,-0.078 0.05,-0.113 -0.033,-0.081 -0.074,-0.139 -0.127,-0.184 -0.051,-0.047 -0.103,-0.068 -0.16,-0.068 -0.042,0 -0.083,0.007 -0.126,0.025 0.007,-0.01 0.012,-0.016 0.013,-0.018 0.016,-0.023 0.026,-0.035 0.031,-0.043 0.065,-0.08 0.118,-0.121 0.164,-0.121 0.05,0 0.106,0.037 0.16,0.114 0.057,0.074 0.096,0.158 0.117,0.25 l 0.277,0 0.081,0 0.824,0 0.053,0.068 0.027,-0.068 0.328,0 0.051,0.068 0.028,-0.068 0.255,0 0.034,0.068 0.039,-0.068 0.281,0 0.074,0 0.273,0 0.012,0.029 0.028,0.08 0.001,0.006 c 0.026,0.074 0.038,0.129 0.038,0.166 l -0.032,0.461 0.034,-0.012 0.059,0.137 -0.112,0.051 c -0.026,0.007 -0.042,0.017 -0.049,0.025" style="fill:#26357c;fill-opacity:1;fill-rule:nonzero;stroke:none" id="path3940-3"/><path d="m 671.6948,34.8535 0.033,0.039 -0.035,0.219 -0.149,-0.186 c 0.009,-0.06 0.017,-0.152 0.025,-0.277 0.008,-0.15 0.014,-0.266 0.014,-0.357 0,-0.065 -0.006,-0.145 -0.012,-0.239 0.062,0.092 0.102,0.162 0.115,0.213 0.018,0.065 0.028,0.145 0.028,0.231 0,0.089 -0.006,0.201 -0.018,0.334 l -10e-4,0.023 z" style="fill:#26357c;fill-opacity:1;fill-rule:nonzero;stroke:none" id="path3944-2"/></g></g></svg>