<svg id="Layer_1" data-name="Layer 1" xmlns="http://www.w3.org/2000/svg" viewBox="0 0 1634.01 556.79"><defs><style>.cls-1{fill:#111121;}.cls-2{fill:#089ed1;}</style></defs><title>Taqa</title><path class="cls-1" d="M342.21,56.87H0v-38H342.21Zm720.93,253.6a151.45,151.45,0,0,1-93.38,32c-84.11,0-152.5-68.39-152.5-152.5S885.65,37.36,969.76,37.36s152.5,68.38,152.5,152.63a151.73,151.73,0,0,1-32,93.38l62.49,62.21L1179.27,319l-41-41a190.31,190.31,0,1,0-80.6,80.61l41,41,26.55-26.54L1063,310.61ZM0,94.92V133H114V361.16h38.05V94.92Zm190.13,0V361h38.05V132.84h114v-38H190.14Zm779.62,22.89a72,72,0,1,0,72,72,72.1,72.1,0,0,0-72-72m0-37.63A109.67,109.67,0,1,1,860.09,189.85,109.72,109.72,0,0,1,969.76,80.18"/><path class="cls-2" d="M1510.38,360.88,1379.65,18.82H1501.4l130.73,342.06Zm-296.43,0h121.74l58.56-153.2H1272.51Z"/><path class="cls-2" d="M636.68,360.88,505.94,18.82H627.69L758.43,360.88Zm-296.43,0H462l58.56-153.2H398.8Z"/><path class="cls-1" d="M1214.56,487.49c-7.17-42.83-52.24-58.29-85.47-41.81-25.13,12.45-36.79,41-28.76,69.8.85,3.08.43,3.64-2.76,3.63h-6.81V519H939.11v-8.4c.09,0,.15-.06.24-.07,0-22.52-.17-45-.13-67.56a10.07,10.07,0,0,0-.11-1.34v-2.48h-38.8V556.6h.18v.12h264.8c.26-.26.48-.7.77-.74,30.47-3.71,54.59-32.19,48.5-68.49M1156.72,519c-12.06.05-21-8.79-21.11-20.82s8.74-21,20.75-21.23a20.7,20.7,0,0,1,21.37,21.08c-.15,12.1-9,20.93-21,21"/><path class="cls-1" d="M1633.93,554.58a10,10,0,0,0,.08-1.07l-.07-54.29c-4.55-23.76-26.09-41.08-50.29-41.09h-6.84V458H1460V444.54c0-.65,0-1.31,0-2,0,0,0-.05,0-.08V439.2h-38.87v3.64c0,.12,0,.2,0,.33,0,4.3,0,8.6,0,12.91v63H1266.86V455.71c0-4,0-8.11,0-12.16,0-.13,0-.19,0-.31v-4h-39.11V556.6h.14v.11h18.85q192,0,384,.08a7.11,7.11,0,0,0,1.8-.19h1.41Zm-38.92-45c0,.57,0,1,0,1.49v8H1460V498.35c0-1.7.6-2.47,2.52-2.54H1545q18.16,0,36.33,0c8,0,13.39,5.73,13.69,13.73"/><polygon class="cls-1" points="872.19 556.57 829.38 556.57 858.32 479.02 901.12 479.02 872.19 556.57"/><path class="cls-1" d="M853.29,455.66c-1.23.11-1.72,1-2.37,1.63-4.64,4.61-9.32,9.19-13.86,13.89-1.34,1.39-2.12,1.46-3.48,0-4.69-4.92-9.44-9.81-14.33-14.54-1.71-1.65-1-2.51.27-3.8,4.58-4.47,9.17-9,13.58-13.6,1.66-1.75,2.61-1.94,4.36-.06,4.09,4.4,8.64,8.38,12.63,12.85,2.36,2.63,3.68,2.22,5.84-.14,4.06-4.43,8.52-8.46,12.66-12.82,1.58-1.67,2.49-1.64,4.06,0q6.76,7.11,13.89,13.87c1.65,1.59,1.65,2.5,0,4.06q-7.12,6.73-14,13.78c-1.58,1.63-2.48,1.68-4.06,0-4.33-4.54-8.84-8.91-13.28-13.34-.66-.65-1.33-1.27-1.92-1.83"/><path class="cls-1" d="M1075.78,472.12c.12,1.23,1,1.72,1.63,2.37,4.61,4.64,9.19,9.33,13.9,13.86,1.38,1.35,1.46,2.13,0,3.48-4.93,4.69-9.82,9.44-14.54,14.34-1.65,1.71-2.52,1-3.8-.28-4.48-4.58-9-9.17-13.61-13.58-1.74-1.66-1.93-2.6-.05-4.35,4.39-4.1,8.37-8.65,12.84-12.64,2.63-2.35,2.23-3.68-.13-5.84-4.43-4.05-8.47-8.52-12.83-12.66-1.67-1.57-1.64-2.48,0-4.06q7.1-6.76,13.87-13.88c1.58-1.66,2.5-1.65,4.06,0q6.72,7.14,13.77,14c1.63,1.58,1.69,2.48,0,4.06-4.55,4.33-8.91,8.84-13.35,13.29-.65.65-1.27,1.33-1.83,1.91"/></svg>