<svg xmlns="http://www.w3.org/2000/svg" viewBox="0 0 500 500"><path fill="#019865" opacity="1.00" d="M 0.725 0.31 C 167.366 -0.053 334.066 -0.173 500.767 0.37 C 499.679 167.071 501.976 333.832 499.74 500.533 C 333.159 499.808 166.58 501.016 0 499.928 C 0.725 333.41 -0.664 166.829 0.725 0.31 M 280.473 55.836 C 306.877 68.042 332.435 81.998 356.543 98.372 C 319.445 109.369 280.352 116.378 246.517 136.015 C 281.742 129.791 317.39 127.374 352.978 124.534 C 341.679 139.459 330.561 154.624 319.324 169.609 C 325.607 166.89 331.891 164.11 338.115 161.331 C 338.115 162.901 338.115 165.984 338.115 167.494 C 348.386 148.461 374.306 143.567 392.976 134.262 C 401.315 163.929 404.396 194.562 407.055 225.136 C 416.963 188.158 424.516 150.395 425.06 111.967 C 433.035 103.871 440.769 95.593 448.141 86.893 C 433.458 87.134 418.776 87.798 404.094 88.464 C 366.089 68.464 323.251 57.951 280.473 55.836 M 161.505 173.053 C 135.282 174.2 108.999 175.711 83.622 182.901 C 100.54 185.318 118.364 187.191 132.382 197.946 C 112.745 220.604 95.646 245.618 82.776 272.808 C 104.588 255.467 125.494 236.978 146.943 219.214 C 155.885 236.132 162.109 254.258 168.03 272.384 C 172.199 250.633 178.362 229.425 184.162 208.037 C 216.186 199.637 250.082 202.417 282.104 209.365 C 257.574 192.145 228.632 183.022 199.449 177.343 C 202.953 168.158 206.397 159.035 209.962 149.912 C 192.924 155.772 177.577 165.138 161.505 173.053 M 75.224 352.261 C 68.094 354.979 61.085 357.88 54.136 360.961 C 58.668 376.308 80.299 375.885 89.061 388.091 C 98.667 401.564 108.092 415.159 117.639 428.693 C 116.612 417.515 115.826 406.337 115.041 395.22 C 131.052 398.181 146.943 401.383 163.076 403.377 C 149.481 393.649 134.255 385.733 122.654 373.469 C 125.252 362.109 131.476 352.08 136.551 341.747 C 123.439 343.016 110.329 343.983 97.156 344.708 C 90.147 326.763 84.529 308.335 80.299 289.544 C 77.278 310.329 75.888 331.294 75.224 352.261 M 297.511 359.269 C 287.482 369.722 279.084 382.592 264.522 387.245 C 262.467 384.102 258.359 377.758 256.305 374.555 C 248.812 382.592 241.924 391.474 232.801 397.818 C 219.63 403.437 205.129 404.524 191.232 407.425 C 200.113 410.445 208.935 413.527 217.757 416.73 C 208.935 422.711 200.113 428.572 191.353 434.675 C 216.487 433.708 237.634 418.361 262.287 415.34 C 263.253 398.361 278.117 388.392 288.811 377.154 C 303.071 391.836 314.249 353.711 297.511 359.269 Z" id="#019865ff" style="stroke-width:1"/></svg>